<?xml version="1.0" encoding="UTF-8" standalone="no"?>
<!-- Created with Inkscape (http://www.inkscape.org/) -->

<svg
   xmlns:dc="http://purl.org/dc/elements/1.1/"
   xmlns:cc="http://creativecommons.org/ns#"
   xmlns:rdf="http://www.w3.org/1999/02/22-rdf-syntax-ns#"
   xmlns:svg="http://www.w3.org/2000/svg"
   xmlns="http://www.w3.org/2000/svg"
   xmlns:sodipodi="http://sodipodi.sourceforge.net/DTD/sodipodi-0.dtd"
   xmlns:inkscape="http://www.inkscape.org/namespaces/inkscape"
   id="svg2"
   sodipodi:docname="tractor.svg"
   inkscape:export-filename="I:\Support\Dealer Training\2014 Online\GPS 100\Images\GDOP-good-2.png"
   viewBox="0 0 177.16535 141.73228"
   inkscape:export-xdpi="162.71985"
   version="1.1"
   inkscape:export-ydpi="162.71985"
   inkscape:version="0.48.5 r10040"
   width="100%"
   height="100%">
  <defs
     id="defs43" />
  <sodipodi:namedview
     id="base"
     bordercolor="#666666"
     inkscape:pageshadow="2"
     inkscape:window-y="0"
     pagecolor="#ffffff"
     inkscape:window-height="935"
     inkscape:window-maximized="0"
     inkscape:zoom="5.6"
     inkscape:window-x="0"
     showgrid="true"
     borderopacity="1.0"
     inkscape:current-layer="layer1"
     inkscape:cx="93.376716"
     inkscape:cy="67.387611"
     inkscape:window-width="1529"
     inkscape:pageopacity="0.0"
     inkscape:document-units="px"
     units="mm"
     inkscape:snap-global="false">
    <inkscape:grid
       type="xygrid"
       id="grid3829" />
  </sodipodi:namedview>
  <g
     id="layer1"
     inkscape:label="Layer 1"
     inkscape:groupmode="layer"
     transform="translate(-1020.6,256.33228)">
    <path
       inkscape:connector-curvature="0"
       style="fill:#000000;stroke:#000000;stroke-width:0.68123001px"
       sodipodi:nodetypes="ccccc"
       d="m 1064.4286,-234.25571 -5.8492,-0.17205 c -1.0322,0.68814 -1.3763,2.7526 -0.6881,4.1289 l 6.1933,0.17204 z"
       id="path21354" />
    <path
       id="path21358"
       sodipodi:nodetypes="cccccccccc"
       style="fill:#000000;stroke:#000000;stroke-width:0.68123001px"
       inkscape:connector-curvature="0"
       d="m 1105.3279,-210.4243 c 0,0 -2.9195,-1.45981 -4.9875,-0.85153 -0.6083,1.21647 -0.4866,4.01442 -0.4866,4.01442 l -2.5546,-0.24331 c 0,0 -0.2161,0.46879 -1.0949,0.72987 l -0.1216,1.94635 c 0,0 4.136,2.91954 4.2577,4.62262 l 1.2607,17.15746 c 0.7299,1.33814 3.9701,-0.12672 5.3083,0.84649 z" />
    <path
       id="path21360"
       sodipodi:rx="8.3968935"
       sodipodi:ry="1.0472163"
       style="fill:#000000;stroke:#000000;stroke-width:1.46739995"
       sodipodi:type="arc"
       d="m 270.08955,149.91391 a 8.3968935,1.0472163 0 1 1 -16.79379,0 8.3968935,1.0472163 0 1 1 16.79379,0 z"
       transform="matrix(0.43127309,-0.38888696,0.36590226,0.45836561,927.17608,-177.33014)"
       sodipodi:cy="149.91391"
       sodipodi:cx="261.69266" />
    <path
       id="path21362"
       style="fill:#000000;stroke:#000000;stroke-width:0.68123001px"
       inkscape:connector-curvature="0"
       d="m 1091.4513,-206.9909 4.903,0.17204" />
    <path
       id="path21364"
       sodipodi:nodetypes="cc"
       style="fill:#000000;stroke:#000000;stroke-width:0.68123001px"
       inkscape:connector-curvature="0"
       d="m 1097.7322,-212.5838 -0.4301,5.0751" />
    <path
       inkscape:connector-curvature="0"
       style="fill:#000000;stroke:#000000;stroke-width:0.68123001px"
       sodipodi:nodetypes="ccccccccc"
       d="m 1104.9286,-231.34572 0.3649,48.416 -9.002,0.12165 2.5546,8.2721 13.26,-0.4866 0.8516,-8.0288 -4.5011,0.2433 -0.6082,-48.416 z"
       id="path21366" />
    <path
       inkscape:connector-curvature="0"
       style="fill:#000000;stroke:#000000;stroke-width:0.68123001"
       sodipodi:nodetypes="ccccccc"
       d="m 1034.4286,-193.45571 c 16.963,-24.123 54.764,-9.4055 59.151,11.583 l 1.6343,20.3 33.891,-0.086 -1.0322,5.8493 -38.88,0.34406 c 1.7204,-48.858 -49.751,-32.52799 -54.764,-37.991 z"
       id="path21368" />
    <path
       d="m 1082.9286,-236.75571 c -10.497,0.008 -19.928,0.39539 -20.756,1.29859 -0.6882,1.3763 -2.2249,24.933 -3.2571,28.718 h -5.5138 c 0,0 -0.3481,-1.0201 -1.7243,-1.1922 -1.7204,-0.34408 -7.7009,0.93583 -7.7009,0.93583 -0.6881,1.2043 -1.2403,5.0888 -1.2403,5.0888 0,0 -7.7404,6.0234 -8.6005,8.2599 0.6284,2.7201 6.7147,-11.772 29.907,-10.447 l 0.7329,-3.7989 c 0,0 -0.058,2.7e-4 -0.044,0 l 2.3974,-24.308 c 1.8924,0.17204 39.089,-0.34061 39.089,-0.34061 0,0 6.5413,0.34407 8.0896,0 0,0 -0.5218,-2.7462 -1.554,-2.7462 -1.0645,-0.87094 -16.33,-1.4791 -29.825,-1.4689 z m -18.885,28.434 c 0,0 -17.651,4.12989 -0.1473,4.30199 17.504,0.17205 26.743,17.16 28.812,25.51 2.0699,8.3494 1.1161,15.977 2.3326,17.802 l 2.1304,-0.0281 c 0,0 29.866,0.42529 31.569,-0.91285 11.005,-23.654 37.808,-22.631 46.862,1.36251 l 7.6791,-0.51092 c 0,0 8.9538,-3.4332 9.814,-4.98151 0,0 0.5179,-8.4412 -0.1703,-9.4734 -1.8924,-1.03219 -15.142,-1.7134 -16.69,-0.68124 -1.0322,1.0322 -0.3406,4.6409 -0.3406,4.6409 h -2.7675 c 0,0 3.9752,-22.698 2.4269,-24.418 -17.548,-12.387 -61.95,-9.9843 -61.95,-9.9843 l -0.4301,33.119 -14.696,0.0895 c -2.751,-9.6287 -8.6679,-36.321 -34.436,-35.835 z"
       inkscape:connector-curvature="0"
       style="fill:#ffffff;stroke:#000000;stroke-width:0.68123001"
       sodipodi:nodetypes="cccccccccccccccscczcccccccccccccccc"
       id="path21370" />
    <path
       inkscape:connector-curvature="0"
       style="fill:#000000;stroke:#000000;stroke-width:0.68123001"
       sodipodi:nodetypes="cccccccccc"
       d="m 1066.5286,-216.74572 c 1.8248,-1.09479 7.4205,6.08241 7.4205,6.08241 0,0 8.6371,-0.12165 9.6103,-0.12165 0.9732,0.48659 0.8515,2.7979 0.8515,2.7979 l 4.9876,0.60824 c 0.9732,1.0948 0.6083,3.5278 -0.2433,3.7711 l -4.0144,1.5814 -6.3257,-4.0144 c -1.5814,-2.3113 -13.26,-2.433 -13.26,-2.433 z"
       id="path21372" />
    <path
       inkscape:connector-curvature="0"
       style="fill:#ffffff;stroke:#000000;stroke-width:0.68123001"
       sodipodi:nodetypes="ccccccccccccccccc"
       d="m 1066.6286,-232.92571 c -0.6083,1.2165 -2.1927,25.418 -2.1927,25.418 17.031,-0.60824 25.78,11.569 33.444,35.169 0.6082,0.60825 14.96,0.59 15.811,0.10341 0.6082,-1.0948 0.2524,-59.72 -0.3558,-60.32901 0.4865,-0.85154 -45.126,-1.0918 -46.707,-0.36191 z m 13.74,2.436 -0.733,23.472 c -2.068,-0.97319 -9.2452,-2.5577 -12.773,-2.1927 l 1.5753,-21.161 c 0.7299,-0.72989 11.687,-0.72684 11.931,-0.11861 z m 2.5424,0 c 0.7299,-0.48659 25.917,-0.36798 26.647,0.11861 1.0949,0.2433 2.0711,54.128 0.4897,54.736 l -10.827,-0.003 c -1.2165,-8.3938 -10.34,-25.288 -16.666,-30.154 z"
       id="path21374" />
    <path
       inkscape:connector-curvature="0"
       style="fill:#000000;stroke:#000000;stroke-width:0.40874001"
       sodipodi:nodetypes="ccccc"
       d="m 1042.5286,-201.91571 c 0,0 2.5375,-1.5914 3.5268,-1.89241 -0.2151,-0.98921 -0.3441,-2.4085 -0.3011,-3.3547 0,0 -2.0644,0.043 -2.4946,0.81717 -0.8602,0.77417 -1.2472,3.91381 -0.7311,4.43001 z"
       id="path21376" />
    <path
       inkscape:connector-curvature="0"
       style="fill:#000000;stroke:#000000;stroke-width:0.68123001px"
       d="m 1147.6486,-195.44771 c -1.9,0.015 -3.82,0.292 -4.24,0.718 -0.43,0.285 -0.74,1.426 -0.97,2.969 l 9.03,0.906 c 0.08,-1.439 0.16,-3.349 0.18,-3.75 -0.24,-0.608 -2.09,-0.859 -4,-0.843 z m -5.43,5.562 c -0.11,1.093 -0.19,2.297 -0.25,3.5 l 5.44,3.344 -2.91,0.218 -2.59,-1.656 c -0.13,3.866 -0.1,7.375 -0.1,7.375 l 9,-1.562 c 0,0 0.29,-5.475 0.53,-10.094 l -9.12,-1.125 z"
       id="path21378" />
    <path
       inkscape:connector-curvature="0"
       style="fill:#000000"
       sodipodi:nodetypes="cccc"
       d="m 1115.9286,-202.02572 0.2433,2.6763 c 0,0 39.536,0.60824 46.47,1.94641 -3.5278,-3.8928 -46.713,-4.62261 -46.713,-4.62261 z"
       id="path21384" />
    <path
       inkscape:connector-curvature="0"
       style="fill:#000000"
       sodipodi:nodetypes="ccccc"
       d="m 1123.7286,-159.80572 c 1.2165,0.71235 1.0948,0.59362 2.0681,-0.11873 4.0143,-20.30199 15.571,-22.816 33.21,-21.463 0.7299,-0.71235 1.2165,-0.94981 0.7299,-1.54339 -22.262,-2.9137 -31.994,3.7729 -36.008,23.125 z"
       id="path21386" />
    <path
       inkscape:connector-curvature="0"
       style="fill:#ffffff;stroke:#000000;stroke-width:0.68123001"
       sodipodi:nodetypes="ccccccccccccccccc"
       d="m 1111.3286,-171.87572 -2.7402,0.10893 h -10.569 l -4.1721,0.12015 c 0.1301,7.1773 1.9689,21.679 1.9689,21.679 0.8601,1.0322 12.76,1.13 15.512,0.78593 0.8121,-7.11519 -0.3631,-14.996 0,-22.69399 z m -2.0023,2.89751 -0.2506,7.4909 -11.571,0.23471 -0.2506,-7.6083 z m -0.2506,10.288 -0.2734,7.3736 h -11.024 v -7.2562 z"
       id="path21388" />
    <path
       inkscape:connector-curvature="0"
       style="fill:#000000;stroke:#000000;stroke-width:0.68123001px"
       sodipodi:nodetypes="ccccc"
       d="m 1175.6286,-193.38571 c -4.0144,-0.7299 -14.476,-0.60824 -15.206,0.60824 -1.3381,0.4866 -2.1896,10.705 -1.2164,11.678 0.8515,1.33809 4.6226,4.501 14.354,4.8659 1.0948,0 2.9196,-16.301 2.068,-17.152 z"
       id="path21390" />
    <path
       inkscape:connector-curvature="0"
       style="fill:none;stroke:#ffffff;stroke-width:0.68123001px"
       d="m 1161.9286,-193.14572 -1.0948,13.26"
       id="path21392" />
    <path
       inkscape:connector-curvature="0"
       style="fill:none;stroke:#ffffff;stroke-width:0.68123001px"
       d="m 1164.8286,-193.87572 -1.8247,15.44901"
       id="path21394" />
    <path
       inkscape:connector-curvature="0"
       style="fill:none;stroke:#ffffff;stroke-width:0.68123001px"
       d="m 1167.0286,-193.63571 -1.4598,15.936"
       id="path21396" />
    <path
       inkscape:connector-curvature="0"
       style="fill:none;stroke:#ffffff;stroke-width:0.68123001px"
       d="m 1169.9286,-193.87572 -1.5814,16.909"
       id="path21398" />
    <path
       inkscape:connector-curvature="0"
       style="fill:none;stroke:#ffffff;stroke-width:0.68123001px"
       d="m 1172.6286,-193.63571 -1.7031,17.274"
       id="path21400" />
    <path
       inkscape:connector-curvature="0"
       style="fill:none;stroke:#ffffff;stroke-width:0.68123001px"
       d="m 1174.5286,-193.26571 -1.4598,17.031"
       id="path21402" />
    <path
       id="path21406"
       sodipodi:nodetypes="ccccc"
       d="m 1175.5968,-184.59206 c 0,0 -2.8656,-0.17457 -3.6563,0.43367 -0.6301,0.48159 -0.8312,4.31164 -0.2781,5.20419 l 2.8815,0.85078 c 0.8588,0.0482 1.7159,-6.02071 1.053,-6.48864 z"
       style="fill:#ffffff;stroke:#000000;stroke-width:0.340615"
       inkscape:connector-curvature="0" />
    <path
       id="path21408"
       sodipodi:nodetypes="cccc"
       style="fill:none;stroke:#000000;stroke-width:0.68123001px;stroke-linecap:round;stroke-linejoin:round"
       inkscape:connector-curvature="0"
       d="m 1175.5151,-184.68062 c 0,0 -3.087,-0.2592 -3.555,0.40379 -0.4583,0.49123 -1.114,4.50368 -0.4606,5.14335 0.305,0.7063 3.1392,0.86523 3.1392,0.86523" />
    <path
       id="path21412"
       sodipodi:rx="5.4295697"
       sodipodi:ry="3.5355339"
       style="fill:#ffffff;stroke:#000000;stroke-width:0.5;stroke-linecap:round;stroke-linejoin:round"
       sodipodi:type="arc"
       d="m 252.03305,126.491 a 5.4295697,3.5355339 0 1 1 -10.85913,0 5.4295697,3.5355339 0 1 1 10.85913,0 z"
       sodipodi:cy="126.491"
       sodipodi:cx="246.60349"
       transform="matrix(0.68123,0,0,0.68123,951.92857,-321.97571)" />
    <path
       id="path21414"
       sodipodi:nodetypes="ccccccc"
       style="fill:#ffffff;stroke:#000000;stroke-width:0.68123001px"
       inkscape:connector-curvature="0"
       d="m 1113.128,-233.39537 2.5806,-0.34408 0.6882,1.5483 c 2.2364,-0.17204 6.7094,-0.68818 6.8818,-2.75258 -4.1289,0.51611 -6.7095,-0.51611 -6.7095,-0.51611 l -4.3009,0.86019 z" />
    <path
       sodipodi:cx="156.06857"
       sodipodi:cy="233.31462"
       transform="matrix(0.69184,0,0,0.70367,949.75857,-327.89571)"
       d="m 203.54574,233.31462 a 47.477169,45.456863 0 1 1 -94.95434,0 47.477169,45.456863 0 1 1 94.95434,0 z"
       sodipodi:type="arc"
       style="fill:#000000;stroke:#ffffff"
       sodipodi:ry="45.456863"
       sodipodi:rx="47.477169"
       id="path21416" />
    <path
       sodipodi:cx="155.31096"
       sodipodi:cy="233.56717"
       transform="matrix(0.71408,0,0,0.68086,946.8286,-322.74575)"
       d="m 186.37315,233.56717 a 31.062191,32.072342 0 1 1 -62.12438,0 31.062191,32.072342 0 1 1 62.12438,0 z"
       sodipodi:type="arc"
       style="fill:#ffffff;fill-opacity:0.66814162;stroke:none"
       sodipodi:ry="32.072342"
       sodipodi:rx="31.062191"
       id="path21418" />
    <path
       sodipodi:cx="155.05841"
       sodipodi:cy="232.30447"
       transform="matrix(1.0497487,0,0,0.97976306,894.9607,-391.32256)"
       d="m 162.12948,232.30447 a 7.0710678,7.5761442 0 1 1 -14.14214,0 7.0710678,7.5761442 0 1 1 14.14214,0 z"
       sodipodi:type="arc"
       style="fill:#000000"
       sodipodi:ry="7.5761442"
       sodipodi:rx="7.0710678"
       id="path21420" />
    <path
       sodipodi:cx="296.98486"
       sodipodi:cy="245.43646"
       transform="matrix(0.75449,0,0,0.71615,927.75857,-331.74571)"
       d="m 329.30975,245.43646 a 32.324883,33.335033 0 1 1 -64.64977,0 32.324883,33.335033 0 1 1 64.64977,0 z"
       sodipodi:type="arc"
       style="fill:#000000;stroke:#ffffff"
       sodipodi:ry="33.335033"
       sodipodi:rx="32.324883"
       id="path21422" />
    <path
       sodipodi:cx="295.21707"
       sodipodi:cy="243.92123"
       transform="matrix(0.70762,0,0,0.69831,942.92918,-326.30902)"
       d="m 314.15743,243.92123 a 18.940361,19.192898 0 1 1 -37.88072,0 18.940361,19.192898 0 1 1 37.88072,0 z"
       sodipodi:type="arc"
       style="fill:#ffffff;fill-opacity:0.66666669;stroke:none"
       sodipodi:ry="19.192898"
       sodipodi:rx="18.940361"
       id="path21424" />
    <path
       sodipodi:cx="294.20694"
       sodipodi:cy="241.64839"
       transform="matrix(0.68331,0,0,0.63923,950.79614,-310.44529)"
       d="m 301.53055,241.64839 a 7.323606,7.8286824 0 1 1 -14.64722,0 7.323606,7.8286824 0 1 1 14.64722,0 z"
       sodipodi:type="arc"
       style="fill:#000000"
       sodipodi:ry="7.8286824"
       sodipodi:rx="7.323606"
       id="path21426" />
  </g>
  <metadata
     id="metadata41">
    <rdf:RDF>
      <cc:Work>
        <dc:format>image/svg+xml</dc:format>
        <dc:type
           rdf:resource="http://purl.org/dc/dcmitype/StillImage" />
        <cc:license
           rdf:resource="http://creativecommons.org/licenses/publicdomain/" />
        <dc:publisher>
          <cc:Agent
             rdf:about="http://openclipart.org/">
            <dc:title>Openclipart</dc:title>
          </cc:Agent>
        </dc:publisher>
        <dc:title />
      </cc:Work>
      <cc:License
         rdf:about="http://creativecommons.org/licenses/publicdomain/">
        <cc:permits
           rdf:resource="http://creativecommons.org/ns#Reproduction" />
        <cc:permits
           rdf:resource="http://creativecommons.org/ns#Distribution" />
        <cc:permits
           rdf:resource="http://creativecommons.org/ns#DerivativeWorks" />
      </cc:License>
    </rdf:RDF>
  </metadata>
</svg>
